<?xml version="1.0" encoding="utf-8"?>
<!-- Generator: Adobe Illustrator 19.1.1, SVG Export Plug-In . SVG Version: 6.00 Build 0)  -->
<svg version="1.1" id="Layer_1" xmlns="http://www.w3.org/2000/svg" xmlns:xlink="http://www.w3.org/1999/xlink" x="0px" y="0px"
	 viewBox="-930 511 38 50.8" style="enable-background:new -930 511 38 50.8;" xml:space="preserve">
<style type="text/css">
	.st0{fill:#B3B247;}
</style>
<g>
	<g>
		<path class="st0" d="M-911,560.5l-0.8-0.9c-0.7-0.8-17.1-20.1-17.1-29.8c0-9.9,8-17.9,17.9-17.9s17.9,8,17.9,17.9
			c0,9.7-16.4,28.9-17.1,29.8L-911,560.5z M-911,514c-8.8,0-15.9,7.1-15.9,15.9c0,7.8,12.6,23.6,15.9,27.5
			c3.3-3.9,15.9-19.7,15.9-27.5C-895.1,521.1-902.2,514-911,514z"/>
	</g>
	<g>
		<path class="st0" d="M-911,540.3c-6,0-10.8-4.8-10.8-10.8s4.8-10.8,10.8-10.8s10.8,4.8,10.8,10.8S-905,540.3-911,540.3z
			 M-911,520.7c-4.9,0-8.8,3.9-8.8,8.8s3.9,8.8,8.8,8.8c4.9,0,8.8-3.9,8.8-8.8S-906.1,520.7-911,520.7z"/>
	</g>
</g>
</svg>
