<?xml version="1.0" encoding="utf-8"?>
<!-- Generator: Adobe Illustrator 19.1.1, SVG Export Plug-In . SVG Version: 6.00 Build 0)  -->
<svg version="1.1" id="Isolation_Mode" xmlns="http://www.w3.org/2000/svg" xmlns:xlink="http://www.w3.org/1999/xlink" x="0px"
	 y="0px" viewBox="0 0 303.9 131.8" style="enable-background:new 0 0 303.9 131.8;" xml:space="preserve">
<style type="text/css">
	.st0{fill:#ADAC3A;}
</style>
<g>
	<g>
		<g>
			<polygon class="st0" points="32.7,96.4 -0.1,96.4 -0.1,93.4 29.7,93.4 29.1,28.5 76.2,0 76.2,63.4 82.5,63.4 82.5,53.9 
				89.3,53.9 89.3,50.6 110.9,50.6 110.9,54.8 113,54.8 113,20.1 159.2,20.2 178.6,24.9 178.6,57.9 191.6,57.9 191.6,50.6 
				304.1,50.6 304.1,53.6 194.6,53.6 194.6,60.9 175.6,60.9 175.6,27.2 158.7,23.1 116,23.1 116,57.8 107.9,57.8 107.9,53.6 
				92.3,53.6 92.3,56.9 85.5,56.9 85.5,66.3 73.2,66.4 73.2,5.3 32.1,30.1 			"/>
		</g>
	</g>
</g>
</svg>
