<?xml version="1.0" encoding="utf-8"?>
<!-- Generator: Adobe Illustrator 19.1.1, SVG Export Plug-In . SVG Version: 6.00 Build 0)  -->
<svg version="1.1" id="Layer_1" xmlns="http://www.w3.org/2000/svg" xmlns:xlink="http://www.w3.org/1999/xlink" x="0px" y="0px"
	 viewBox="-941.7 524.3 29.3 25.3" style="enable-background:new -941.7 524.3 29.3 25.3;" xml:space="preserve">
<style type="text/css">
	.st0{fill:#9D9D24;}
</style>
<g>
	<path class="st0" d="M-920.5,526l6.5,11l-6.5,11h-13l-6.5-11l6.5-11H-920.5 M-920.5,525h-13c-0.4,0-0.7,0.2-0.9,0.5l-6.5,11
		c-0.2,0.3-0.2,0.7,0,1l6.5,11c0.2,0.3,0.5,0.5,0.9,0.5h13c0.4,0,0.7-0.2,0.9-0.5l6.5-11c0.2-0.3,0.2-0.7,0-1l-6.5-11
		C-919.8,525.2-920.1,525-920.5,525L-920.5,525z"/>
	<path class="st0" d="M-927,531c3.3,0,6,2.7,6,6s-2.7,6-6,6s-6-2.7-6-6S-930.3,531-927,531 M-927,530c-3.9,0-7,3.1-7,7
		c0,3.9,3.1,7,7,7c3.9,0,7-3.1,7-7C-920,533.1-923.1,530-927,530L-927,530z"/>
</g>
</svg>
