<?xml version="1.0" encoding="utf-8"?>
<!-- Generator: Adobe Illustrator 19.1.1, SVG Export Plug-In . SVG Version: 6.00 Build 0)  -->
<svg version="1.1" id="Layer_1" xmlns="http://www.w3.org/2000/svg" xmlns:xlink="http://www.w3.org/1999/xlink" x="0px" y="0px"
	 viewBox="-909 478 92.5 95.5" style="enable-background:new -909 478 92.5 95.5;" xml:space="preserve">
<style type="text/css">
	.st0{fill:#9D9D24;}
</style>
<g>
	<path class="st0" d="M-880.3,553.5c0,0-3.3-1.6-5.4-5.6c-2.1-3.9-1.7-7.5-1.7-7.8c0.1-1-0.1-1.8-0.8-2.5c-0.8-0.7-1.9-1.1-3.2-0.8
		c-2.2,0.4-4.2,2.2-4.5,4.2c0,0.2-0.8,5.7,2.3,11.4c3.1,5.8,7.9,8,8.1,8.1c0.5,0.2,1,0.3,1.6,0.3c0.9,0,1.8-0.3,2.7-0.8
		c0.6-0.3,1.1-0.8,1.6-1.3c0.9-1,1.2-2.2,1-3.3C-878.9,554.6-879.4,553.9-880.3,553.5z M-881.2,557.5c-0.3,0.3-0.6,0.6-1,0.9
		c-0.9,0.5-1.8,0.6-2.5,0.3c0,0-4.4-2-7.2-7.2c-2.8-5.2-2.1-10-2.1-10.2c0.2-1.1,1.5-2.3,2.9-2.5c0.2,0,0.3,0,0.5,0
		c0.5,0,0.8,0.1,1.1,0.3c0.2,0.2,0.3,0.5,0.2,0.8l0,0c0,0.2-0.5,4.4,1.9,8.9c2.5,4.6,6.3,6.4,6.3,6.5c0.3,0.1,0.5,0.3,0.5,0.6
		C-880.5,556.3-880.7,556.9-881.2,557.5z"/>
	<path class="st0" d="M-818.7,496.1l-10.4-14.7c-0.2-0.2-0.4-0.4-0.7-0.4c-0.3,0-0.5,0-0.8,0.2l-53.8,44.7c-1.3-0.7-2.2-0.2-2.7,0.2
		l-0.5,0.4c-8.3,6.3-14.5,11.6-18.7,15.9c-0.9,1-1.4,2.3-1.2,3.7c0.2,1.4,0.9,2.6,2.1,3.3c2.6,1.6,5.2,3.9,7.8,6.7
		c2.1,2.2,3.1,5.8,3.9,8.6c0.5,1.7,0.9,3.2,1.5,4.2c0.7,1.2,1.9,2,3.3,2.1c0.2,0,0.4,0,0.6,0c1.2,0,2.3-0.4,3.1-1.3l15.9-12.3l0,0
		l0.1-0.1l0.1-0.1l0,0l3-5.1l1.5,2.2c0.2,0.3,0.6,0.5,0.9,0.4c0.4-0.1,0.7-0.3,0.8-0.7l2.8-8.3l1.2,1.8c0.2,0.3,0.6,0.5,0.9,0.4
		c0.4-0.1,0.7-0.3,0.8-0.7l2.8-8.2l1,1.7c0.2,0.3,0.6,0.5,0.9,0.5c0.4,0,0.7-0.3,0.8-0.7l2.8-8.3l1.2,1.8c0.2,0.3,0.6,0.5,0.9,0.4
		c0.4-0.1,0.7-0.3,0.8-0.7l2.8-8.3l1.2,1.7c0.1,0.3,0.4,0.5,0.7,0.5c0.5,0.1,1-0.2,1.1-0.7l2.8-8.3l1.2,1.8c0.2,0.3,0.6,0.5,0.9,0.4
		c0.4-0.1,0.7-0.3,0.8-0.7l2.8-8.2l1,1.7c0.2,0.3,0.6,0.5,0.9,0.5c0.4,0,0.7-0.3,0.8-0.7l2.8-8.3l1.2,1.8c0.2,0.3,0.5,0.5,0.9,0.4
		c0.4,0,0.7-0.3,0.8-0.6l4.3-9.8C-818.4,496.7-818.5,496.3-818.7,496.1z M-886.4,568.2C-886.4,568.3-886.4,568.3-886.4,568.2
		c-0.7,0.6-1.4,0.9-2.2,0.8c-0.8-0.1-1.5-0.5-1.9-1.2c-0.5-0.7-0.9-2.2-1.3-3.7c-0.9-3-2-6.8-4.4-9.4c-2.7-2.9-5.5-5.2-8.2-7
		c-0.7-0.4-1.1-1.1-1.2-1.9c-0.1-0.8,0.2-1.5,0.7-2.1c2.8-2.9,8.2-7.9,18.4-15.7l0.6-0.4c0,0,0.1-0.1,0.2-0.1s0.4,0.1,0.7,0.4l0,0
		c0.5,0.4,3.3,2.7,5.1,6.4l-2.6,2.2c-0.4,0.3-0.5,1-0.1,1.4c0.2,0.2,0.5,0.4,0.8,0.4c0.2,0,0.4-0.1,0.6-0.2l2.2-1.8
		c0.1,0.4,0.3,0.8,0.4,1.3l-1.4,1c-0.4,0.3-0.5,1-0.1,1.4c0.2,0.2,0.5,0.4,0.8,0.4c0.2,0,0.4-0.1,0.6-0.2l0.4-0.4c0,0.5,0,1,0,1.5
		l0,0l-1.7,1.4c-0.4,0.3-0.5,1-0.1,1.4c0.2,0.2,0.5,0.4,0.8,0.4c0.2,0,0.4-0.1,0.6-0.2l0.3-0.2v0.1c0,0.4,0,0.8,0,1.1
		c0,0.1,0,0.1,0,0.2c0,0.3,0.1,0.7,0.1,1c0,0.1,0,0.2,0,0.3c0.1,0.4,0.1,0.7,0.2,1c0,0.1,0,0.1,0.1,0.2c0.1,0.3,0.2,0.6,0.3,0.9
		c0,0.1,0,0.1,0.1,0.2c0.1,0.3,0.2,0.6,0.4,0.9c0,0.1,0.1,0.1,0.1,0.2c0.1,0.3,0.2,0.5,0.4,0.8c0,0,0,0.1,0.1,0.1
		c0.2,0.3,0.3,0.5,0.5,0.8c0,0.1,0.1,0.1,0.1,0.2c0.2,0.2,0.3,0.5,0.5,0.7c0,0,0,0,0,0.1c0.2,0.2,0.4,0.5,0.5,0.7
		c0,0.1,0.1,0.1,0.1,0.2c0.2,0.2,0.4,0.4,0.5,0.6l0,0c0.2,0.2,0.3,0.4,0.5,0.5l0.1,0.1c0.2,0.2,0.4,0.3,0.5,0.5c0,0,0.1,0,0.1,0.1
		c0.2,0.1,0.3,0.3,0.5,0.4l0.1,0.1c0.2,0.1,0.3,0.3,0.5,0.4c0,0,0.1,0,0.1,0.1c0.1,0.1,0.3,0.2,0.4,0.3l0,0L-886.4,568.2z
		 M-824,504.4l-1.4-2c-0.2-0.3-0.6-0.5-0.9-0.4c-0.4,0.1-0.7,0.3-0.8,0.7l-2.8,8.2l-1-1.7c-0.2-0.3-0.6-0.5-0.9-0.5
		c-0.4,0-0.7,0.3-0.8,0.7l-2.8,8.3l-1.2-1.8c-0.2-0.3-0.6-0.5-0.9-0.4c-0.4,0.1-0.7,0.3-0.8,0.7l-2.8,8.3l-1.2-1.8
		c-0.2-0.3-0.6-0.5-0.9-0.4c-0.4,0.1-0.7,0.3-0.8,0.7l-3,8.2l-1.2-1.8c-0.2-0.3-0.6-0.5-0.9-0.4c-0.4,0.1-0.7,0.3-0.8,0.7l-2.8,8.2
		l-1-1.7c-0.2-0.3-0.6-0.5-0.9-0.5c-0.4,0-0.7,0.3-0.8,0.7l-2.8,8.3l-1.2-1.8c-0.2-0.3-0.6-0.5-0.9-0.4c-0.4,0.1-0.7,0.3-0.8,0.7
		l-2.9,8.3l-1.2-1.8c-0.2-0.3-0.5-0.4-0.8-0.4s-0.6,0.2-0.8,0.5l-3.3,5.6c-2-1.4-7-5.5-6.2-12.5c0.8-6.7-2.7-12.4-6.3-15.7
		l52.5-43.8l9.5,13.3L-824,504.4z"/>
	<path class="st0" d="M-832.3,487.8c-1,1-1,2.8,0,3.8c0.5,0.5,1.2,0.8,1.9,0.8s1.4-0.3,1.9-0.8s0.8-1.2,0.8-1.9
		c0-0.7-0.3-1.4-0.8-1.9l0,0C-829.5,486.7-831.2,486.7-832.3,487.8z M-829.9,490.2c-0.3,0.3-0.7,0.3-1,0c-0.3-0.3-0.3-0.7,0-1
		c0.1-0.1,0.3-0.2,0.5-0.2s0.4,0.1,0.5,0.2l0,0c0.1,0.1,0.2,0.3,0.2,0.5C-829.7,489.9-829.7,490.1-829.9,490.2z"/>
	<path class="st0" d="M-885.6,535.2c0.7,0,1.4-0.3,1.9-0.8c1-1,1-2.8,0-3.8s-2.8-1-3.8,0s-1,2.8,0,3.8
		C-887,534.9-886.3,535.2-885.6,535.2z M-886.1,532c0.1-0.1,0.3-0.2,0.5-0.2c0.2,0,0.4,0.1,0.5,0.2c0.3,0.3,0.3,0.7,0,1
		c-0.3,0.3-0.8,0.3-1,0C-886.4,532.8-886.4,532.3-886.1,532z"/>
	<path class="st0" d="M-876.9,524.4l-1.3,1.1c-0.4,0.3-0.5,1-0.1,1.4c0.2,0.2,0.5,0.4,0.8,0.4c0.2,0,0.4-0.1,0.6-0.2l1.3-1.1
		c0.4-0.3,0.5-1,0.1-1.4C-875.9,524.1-876.5,524.1-876.9,524.4z"/>
	<path class="st0" d="M-838.1,492.2l-36.1,30c-0.4,0.3-0.5,1-0.1,1.4c0.2,0.2,0.5,0.4,0.8,0.4c0.2,0,0.4-0.1,0.6-0.2l36.1-30
		c0.4-0.3,0.5-1,0.1-1.4C-837.1,491.9-837.7,491.8-838.1,492.2z"/>
</g>
</svg>
