<?xml version="1.0" encoding="utf-8"?>
<!-- Generator: Adobe Illustrator 19.1.1, SVG Export Plug-In . SVG Version: 6.00 Build 0)  -->
<svg version="1.1" id="Layer_1" xmlns="http://www.w3.org/2000/svg" xmlns:xlink="http://www.w3.org/1999/xlink" x="0px" y="0px"
	 viewBox="-941.6 526.3 29.2 22.3" style="enable-background:new -941.6 526.3 29.2 22.3;" xml:space="preserve">
<style type="text/css">
	.st0{fill:#9D9D24;}
</style>
<path class="st0" d="M-914,532h-7v-2c0-1.7-1.3-3-3-3h-6c-1.7,0-3,1.3-3,3v2h-7c-0.6,0-1,0.4-1,1v4c0,0.6,0.4,1,1,1v9
	c0,0.6,0.4,1,1,1h24c0.6,0,1-0.4,1-1v-9c0.6,0,1-0.4,1-1v-4C-913,532.4-913.4,532-914,532z M-932,530c0-1.1,0.9-2,2-2h6
	c1.1,0,2,0.9,2,2v2h-1v-2c0-0.6-0.4-1-1-1h-6c-0.6,0-1,0.4-1,1v2h-1V530z M-924,530v2h-6v-2H-924z M-915,547h-24v-9h10v1.5
	c0,1.1,0.9,2,2,2s2-0.9,2-2V538h10V547z M-926,539v0.5c0,0.6-0.4,1-1,1c-0.6,0-1-0.4-1-1V539H-926z M-928,538v-2h2v2H-928z
	 M-914,537h-11v-1c0-0.6-0.4-1-1-1h-2c-0.6,0-1,0.4-1,1v1h-11v-4h26V537z"/>
</svg>
