<?xml version="1.0" encoding="utf-8"?>
<!-- Generator: Adobe Illustrator 19.1.1, SVG Export Plug-In . SVG Version: 6.00 Build 0)  -->
<svg version="1.1" id="Layer_1" xmlns="http://www.w3.org/2000/svg" xmlns:xlink="http://www.w3.org/1999/xlink" x="0px" y="0px"
	 viewBox="-899 489.5 80 76.5" style="enable-background:new -899 489.5 80 76.5;" xml:space="preserve">
<style type="text/css">
	.st0{fill:#9D9D24;}
</style>
<g>
	<circle class="st0" cx="-828.4" cy="557.4" r="1.6"/>
	<path class="st0" d="M-823.6,552.3l-24-22.8l27.3-24.2l-9.9-11.2l-28.5,24.8l-3.3-3.1c2-6.6-0.3-14.2-6.1-19.4
		c-3.3-2.9-7.5-4.5-12.1-4.5c-2.7,0-5.3,0.5-7.9,1.6l-2.1,0.9l11.5,10.8l-5.9,6.7l-11.8-11.1l-0.5,2.8c-0.9,5.5,0,13.7,5.6,18.8
		c3.6,3.2,8.1,4.9,12.9,4.9c2.5,0,5-0.5,7.2-1.4l2.4,2.3l-28.2,25l9.9,11.2l29.2-25.9l25.2,23.9c1.3,1.2,3,1.8,4.8,1.8h0
		c2,0,3.8-0.8,5-2.2C-820.4,559.3-820.7,554.8-823.6,552.3z M-830.5,498.3l6,6.7l-2.8,2.5l-1.6-1.6l-2.1,2.1l1.5,1.5l-2,1.8
		l-1.4-1.4l-2.1,2.1l1.2,1.2l-2.5,2.2l-1.6-1.6l-2.1,2.1l1.5,1.5l-2.5,2.2l-1.8-1.8l-2.1,2.1l1.7,1.7l-3.1,2.7l-1.5-1.5l-2.1,2.1
		l1.4,1.4l-1.1,1l-6.8-6.4L-830.5,498.3z M-860.7,537.1l-1.2-1.2l-2.1,2.1l1.1,1.1l-1.5,1.3l-1.5-1.5l-2.1,2.1l1.4,1.4l-2,1.8
		l-1.3-1.3l-2.1,2.1l1.1,1.1l-2.5,2.2l-1.5-1.5l-2.1,2.1l1.3,1.3l-2.5,2.2l-1.7-1.7l-2.1,2.1l1.6,1.6l-2.5,2.2l-1.9-1.9l-2.1,2.1
		l1.8,1.8l-1.5,1.3l-6-6.7l26.2-23.2l6.6,6.2L-860.7,537.1z M-825.1,560.1c-0.7,0.7-1.7,1.2-2.8,1.2h0c-1,0-2-0.4-2.8-1l-40-37.9
		l-0.9,0.5c-2,1-4.4,1.6-6.8,1.6c-4,0-7.9-1.5-10.9-4.2c-3.6-3.2-5-8.5-4.9-13.1l9.8,9.2l9.9-11.1l-10.2-9.5c1.5-0.4,3-0.6,4.4-0.6
		c3.8,0,7.4,1.3,10.1,3.7c5.1,4.5,7.1,11.4,4.9,17l-0.4,0.9l39.9,37.9C-824,556-823.7,558.6-825.1,560.1z"/>
</g>
</svg>
