<?xml version="1.0" encoding="utf-8"?>
<!-- Generator: Adobe Illustrator 19.1.1, SVG Export Plug-In . SVG Version: 6.00 Build 0)  -->
<svg version="1.1" id="Layer_1" xmlns="http://www.w3.org/2000/svg" xmlns:xlink="http://www.w3.org/1999/xlink" x="0px" y="0px"
	 viewBox="-941.4 522.5 26.8 28.9" style="enable-background:new -941.4 522.5 26.8 28.9;" xml:space="preserve">
<style type="text/css">
	.st0{fill:#9D9D24;}
</style>
<path class="st0" d="M-917,523h-20c-1.1,0-2,0.8-2,1.8v2.3h-0.5c-0.8,0-1.5,0.7-1.5,1.5v4.3c0,0.6,0.4,1.2,1,1.4l11.6,3.5
	c0.2,0.1,0.4,0.3,0.4,0.5v0.8c-0.5,0-1,0.4-1,1l-0.5,10c0,0.3,0.1,0.5,0.3,0.7s0.5,0.3,0.7,0.3h2c0.3,0,0.5-0.1,0.7-0.3
	s0.3-0.5,0.3-0.7l-0.5-10c0-0.5-0.5-1-1-1v-0.8c0-0.7-0.4-1.2-1.1-1.4l-11.6-3.5c-0.2-0.1-0.3-0.3-0.3-0.5v-4.3
	c0-0.3,0.2-0.5,0.5-0.5h0.5v2.3c0,1,0.9,1.8,2,1.8h20c1.1,0,2-0.8,2-1.8v-5.5C-915,523.8-915.9,523-917,523z M-926.5,550h-2l0.5-10
	h1L-926.5,550z M-916,530.3c0,0.4-0.4,0.8-1,0.8h-20c-0.6,0-1-0.3-1-0.8V528v-1v-2.3c0-0.4,0.4-0.8,1-0.8h20c0.6,0,1,0.3,1,0.8
	V530.3z"/>
</svg>
