<?xml version="1.0" encoding="utf-8"?>
<!-- Generator: Adobe Illustrator 19.1.1, SVG Export Plug-In . SVG Version: 6.00 Build 0)  -->
<svg version="1.1" id="Layer_1" xmlns="http://www.w3.org/2000/svg" xmlns:xlink="http://www.w3.org/1999/xlink" x="0px" y="0px"
	 viewBox="-937.6 522.5 21.1 28.9" style="enable-background:new -937.6 522.5 21.1 28.9;" xml:space="preserve">
<style type="text/css">
	.st0{fill:#9D9D24;}
</style>
<g>
	<path class="st0" d="M-927,546c0.6,0,1,0.4,1,1s-0.4,1-1,1s-1-0.4-1-1S-927.6,546-927,546 M-927,545c-1.1,0-2,0.9-2,2s0.9,2,2,2
		s2-0.9,2-2S-925.9,545-927,545L-927,545z"/>
	<path class="st0" d="M-918,531v-7c0-0.6-0.4-1-1-1h-16c-0.6,0-1,0.4-1,1v7c-0.6,0-1,0.4-1,1v3c0,0.6,0.4,1,1,1c0,3,6,2,6,5
		c0,1-1,3-1,5c0,3,1.8,5,4,5c2.2,0,4-2,4-5c0-2-1-4-1-5c0-3,6-2,6-5c0.6,0,1-0.4,1-1v-3C-917,531.4-917.4,531-918,531z M-935,524h1
		v3.2c0,0.3,0.2,0.5,0.5,0.5s0.5-0.2,0.5-0.5V524h1v2c0,0.3,0.2,0.5,0.5,0.5s0.5-0.2,0.5-0.5v-2h1v4.5c0,0.3,0.2,0.5,0.5,0.5
		s0.5-0.2,0.5-0.5V524h1v0.8c0,0.3,0.2,0.5,0.5,0.5s0.5-0.2,0.5-0.5V524h8v7h-16V524z M-921.3,537.6c-1.6,0.5-3.7,1.2-3.7,3.4
		c0,0.6,0.2,1.2,0.4,2c0.3,0.9,0.6,2,0.6,3c0,2.3-1.3,4-3,4s-3-1.7-3-4c0-1,0.3-2.1,0.6-3c0.2-0.8,0.4-1.4,0.4-2
		c0-2.2-2.1-2.9-3.7-3.4c-1.6-0.5-2.3-0.8-2.3-1.6h16C-919,536.7-919.7,537-921.3,537.6z M-918,535h-18v-3h18V535z"/>
	<path class="st0" d="M-919,533.5c0,0.3-0.2,0.5-0.5,0.5h-15c-0.3,0-0.5-0.2-0.5-0.5l0,0c0-0.3,0.2-0.5,0.5-0.5h15
		C-919.2,533-919,533.2-919,533.5L-919,533.5z"/>
</g>
</svg>
