<?xml version="1.0" encoding="utf-8"?>
<!-- Generator: Adobe Illustrator 19.1.1, SVG Export Plug-In . SVG Version: 6.00 Build 0)  -->
<svg version="1.1" id="Layer_1" xmlns="http://www.w3.org/2000/svg" xmlns:xlink="http://www.w3.org/1999/xlink" x="0px" y="0px"
	 viewBox="-911 481 96 96.5" style="enable-background:new -911 481 96 96.5;" xml:space="preserve">
<style type="text/css">
	.st0{fill:#B3B247;}
</style>
<path class="st0" d="M-837,575c-9.9,0-18-8.1-18-18c0-0.3,0-0.5,0-0.8l-23.8-13.1c-3,2.1-6.5,3.3-10.2,3.3c-9.9,0-18-8.1-18-18
	c0-9.9,8.1-18,18-18c3.8,0,7.4,1.2,10.5,3.4l23.5-12.4c0-0.1,0-0.3,0-0.4c0-9.9,8.1-18,18-18s18,8.1,18,18c0,9.9-8.1,18-18,18
	c-3.8,0-7.4-1.2-10.5-3.4l-23.5,12.4c0,0.1,0,0.3,0,0.4c0,0.3,0,0.5,0,0.8l23.8,13.1c3-2.1,6.5-3.3,10.2-3.3c9.9,0,18,8.1,18,18
	S-827.1,575-837,575z M-879,538.7c0.3,0,0.7,0.1,1,0.3l26.2,14.4c0.7,0.4,1.1,1.2,1,2l-0.1,0.6c0,0.4-0.1,0.7-0.1,1.1
	c0,7.7,6.3,14,14,14s14-6.3,14-14c0-7.7-6.3-14-14-14c-3.2,0-6.2,1.1-8.8,3.2c-0.6,0.5-1.5,0.6-2.2,0.2l-26.2-14.4
	c-0.7-0.4-1.1-1.2-1-2l0.1-0.6c0-0.3,0.1-0.7,0.1-1.1c0-0.3,0-0.5-0.1-0.8l-0.1-0.6c-0.1-0.8,0.3-1.6,1.1-2l25.9-13.6
	c0.7-0.4,1.6-0.3,2.2,0.2c2.6,2.2,5.7,3.4,9,3.4c7.7,0,14-6.3,14-14c0-7.7-6.3-14-14-14s-14,6.3-14,14c0,0.3,0,0.5,0.1,0.8l0.1,0.6
	c0.1,0.8-0.3,1.6-1.1,2l-25.9,13.6c-0.7,0.4-1.6,0.3-2.2-0.3c-2.6-2.2-5.7-3.3-9-3.3c-7.7,0-14,6.3-14,14c0,7.7,6.3,14,14,14
	c3.2,0,6.2-1.1,8.8-3.2C-879.9,538.9-879.4,538.7-879,538.7z"/>
</svg>
