<?xml version="1.0" encoding="utf-8"?>
<!-- Generator: Adobe Illustrator 19.1.1, SVG Export Plug-In . SVG Version: 6.00 Build 0)  -->
<svg version="1.1" id="Layer_1" xmlns="http://www.w3.org/2000/svg" xmlns:xlink="http://www.w3.org/1999/xlink" x="0px" y="0px"
	 viewBox="-904.5 505.5 71 71" style="enable-background:new -904.5 505.5 71 71;" xml:space="preserve">
<style type="text/css">
	.st0{fill:#B3B247;}
</style>
<g>
	<path class="st0" d="M-869,575.2c-18.8,0-34.2-15.3-34.2-34.2s15.4-34.2,34.2-34.2s34.2,15.4,34.2,34.2c0,6.2-1.7,12.2-4.8,17.5
		c-0.4,0.7-1.3,0.9-2.1,0.5c-0.7-0.4-0.9-1.3-0.5-2.1c2.9-4.8,4.4-10.3,4.4-15.9c0-17.2-14-31.2-31.2-31.2s-31.2,14-31.2,31.2
		s14,31.2,31.2,31.2c6,0,11.3-1.7,14.4-4.7c2.7-2.6,3.9-5.3,3.7-7.9c-0.6-5.6-7.6-10-8.4-10.5c-0.1,0-0.1-0.1-0.1-0.1
		c-0.1,0-0.3,0.1-0.5,0.3c-0.2,0.2-1.1,1-1.6,1.6c-0.8,0.8-1.3,1.3-1.6,1.5c-0.6,0.5-1.5,1.1-2.5,0.9c-0.4,0-0.7-0.2-1.1-0.4
		c-0.6-0.3-3.3-2.3-8-7.6c-5.4-6.1-5.5-9.7-5.5-10.7c0.1-1.1,0.9-1.8,1.5-2.3c0.6-0.5,1.4-1,2.1-1.4c0.6-0.3,1.2-0.7,1.7-1.2
		c0.2-0.2,0.4-0.3,0.4-0.4c0,0,0,0,0-0.1c-0.2-0.4-3-6.8-3.9-8.6c-0.3,0-0.7,0-0.9,0.1c-5.7,2.3-6.5,5.9-6.6,7.3
		c-0.1,1-0.5,10.2,7.5,19.9c8.9,10.8,16,12.1,17.3,12.2c0.3,0,1.9,0.2,3.9-0.5c0.8-0.3,1.6,0.1,1.9,0.9s-0.1,1.6-0.9,1.9
		c-2,0.7-4,0.8-5.2,0.7c-2.2-0.2-10-1.9-19.3-13.3c-8.7-10.6-8.3-20.9-8.2-22c0.1-1.6,1-6.8,8.4-9.7c1-0.4,3.4-0.6,4.3,0.6
		c0.4,0.5,4.4,9.6,4.4,9.7c0.2,0.5,0.2,1,0.2,1.5c-0.1,0.8-0.6,1.5-1.5,2.3c-0.7,0.5-1.4,1-2.1,1.5c-0.6,0.4-1.2,0.7-1.8,1.2
		c-0.2,0.2-0.3,0.3-0.4,0.3c0,0.6,0.4,3.4,4.7,8.2c4.5,5.1,6.8,6.7,7.1,6.9c0.1,0,0.2-0.1,0.4-0.3s0.8-0.8,1.3-1.3
		c1-1,1.6-1.6,2-1.9c1-0.7,1.8-1,2.6-0.9c0.5,0.1,1,0.2,1.4,0.5c1.5,0.9,9.1,5.9,9.9,12.8c0.4,3.7-1.1,7.2-4.6,10.4
		C-856.2,573.1-862.2,575.2-869,575.2z"/>
</g>
</svg>
