<?xml version="1.0" encoding="utf-8"?>
<!-- Generator: Adobe Illustrator 19.1.0, SVG Export Plug-In . SVG Version: 6.00 Build 0)  -->
<svg version="1.1" id="Layer_1" xmlns="http://www.w3.org/2000/svg" xmlns:xlink="http://www.w3.org/1999/xlink" x="0px" y="0px"
	 width="100px" height="125px" viewBox="-545 358.9 100 125" style="enable-background:new -545 358.9 100 125;"
	 xml:space="preserve">
<style type="text/css">
	.st0{fill:#9D9D24;}
</style>
<path class="st0" d="M-469.3,434.7c-0.1-0.5-0.5-0.8-1-0.8h-7.7v-63.3c0-5.9,0-11.5-3.9-11.7c0,0-0.1,0-0.1,0h-0.1h-58.5
	c-0.6,0-1.4,0.2-2.2,1.2c-1.9,2.3-2.8,8-1.9,13c0.1,0.5,0.5,0.8,1,0.8h4.7v61.8c0,6.9,3.4,13.2,7.1,13.2c68.3,0-10.3,0,58.9,0
	C-470.2,448.9-468.1,440.7-469.3,434.7z M-542.8,371.9c-0.8-6.1,1.1-11,2.2-11c1.9,0,1.6,5.6,1.6,11H-542.8z M-537,435.7V370
	c0-4.5,0-7.3-0.8-9.1h55.6c1.8,0,2.1,3.3,2.1,9.7v63.3h-48.7c-0.6,0-1.1,0.6-1,1.2c0.6,4-0.1,11.8-2.2,11.8
	C-533.9,446.9-537,442.2-537,435.7z M-473.4,446.9H-529c1.5-2.8,1.7-7.9,1.4-11h56.4C-470.4,441.1-472.2,446.9-473.4,446.9z
	 M-497.7,377.9h-18.7c-1.3,0-1.3-2,0-2h18.7C-496.3,375.9-496.3,377.9-497.7,377.9z M-487.7,383.9h-38.7c-1.3,0-1.3,2,0,2h38.7
	C-486.3,385.9-486.3,383.9-487.7,383.9z M-487.7,391.9h-38.7c-1.3,0-1.3,2,0,2h38.7C-486.3,393.9-486.3,391.9-487.7,391.9z
	 M-487.7,399.9h-38.7c-1.3,0-1.3,2,0,2h38.7C-486.3,401.9-486.3,399.9-487.7,399.9z M-487.7,407.9h-38.7c-1.3,0-1.3,2,0,2h38.7
	C-486.3,409.9-486.3,407.9-487.7,407.9z M-499,425c-0.7-0.6-2.7-2.1-3.7-2.6c0.1,0.5,0.2,0.7,0.3,1c0.6,1.3-0.5,2.6-2.2,0.6
	c-2.9-3.4-6.2-4-7.3-3.1c-0.8,0.6-0.6,1.8,0.3,3.3c0.7,1.1-1,2.2-1.7,1c-1.8-2.9-1.1-5,0.2-6c1.8-1.3,5.3-0.9,8.5,1.8
	c0.9-2.2,4,0,5.8,1.4c1-1.9,5.2-0.8,10.4-0.7c1.3,0,1.4,1.9,0,2c-3.2,0-7.4-0.7-8.5-0.4C-495.1,426.3-497.2,426.4-499,425z"/>
</svg>
