<?xml version="1.0" encoding="iso-8859-1"?>
<!-- Generator: Adobe Illustrator 19.0.0, SVG Export Plug-In . SVG Version: 6.00 Build 0)  -->
<svg xmlns="http://www.w3.org/2000/svg" xmlns:xlink="http://www.w3.org/1999/xlink" version="1.1" id="Capa_1" x="0px" y="0px" viewBox="0 0 512 512" style="enable-background:new 0 0 512 512;" xml:space="preserve" width="512px" height="512px">
<g>
	<g>
		<path d="M179.2,166.4H93.867c-4.71,0-8.533,3.814-8.533,8.533v102.4c0,4.719,3.823,8.533,8.533,8.533H179.2    c4.71,0,8.533-3.814,8.533-8.533v-102.4C187.733,170.214,183.91,166.4,179.2,166.4z M170.667,268.8H102.4v-85.333h68.267V268.8z" fill="#9d9d24"/>
	</g>
</g>
<g>
	<g>
		<path d="M93.867,192H21.862C9.805,192,0,201.805,0,213.862v24.542c0,12.058,9.805,21.862,21.862,21.862h72.004    c4.71,0,8.533-3.814,8.533-8.533v-51.2C102.4,195.814,98.577,192,93.867,192z M85.333,243.2H21.862    c-2.645,0-4.796-2.15-4.796-4.796v-24.542c0-2.645,2.15-4.796,4.796-4.796h63.471V243.2z" fill="#9d9d24"/>
	</g>
</g>
<g>
	<g>
		<path d="M490.138,192H179.2c-4.71,0-8.533,3.814-8.533,8.533v51.2c0,4.719,3.823,8.533,8.533,8.533h310.938    c12.058,0,21.862-9.805,21.862-21.862v-24.542C512,201.805,502.195,192,490.138,192z M494.933,238.404    c0,2.645-2.15,4.796-4.796,4.796H187.733v-34.133h302.404c2.645,0,4.796,2.15,4.796,4.796V238.404z" fill="#9d9d24"/>
	</g>
</g>
<g>
	<g>
		<path d="M486.4,243.2H179.2c-4.71,0-8.533,3.814-8.533,8.533V268.8H102.4v-17.067c0-4.719-3.823-8.533-8.533-8.533H25.6    c-4.71,0-8.533,3.814-8.533,8.533V362.65c0,28.245,22.972,51.217,51.209,51.217h375.45c28.237,0,51.208-22.972,51.208-51.217    V251.733C494.933,247.014,491.11,243.2,486.4,243.2z M477.867,362.65c0,18.833-15.317,34.15-34.15,34.15H68.275    c-18.825,0-34.142-15.317-34.142-34.15V260.267h51.2v17.067c0,4.719,3.823,8.533,8.533,8.533H179.2    c4.71,0,8.533-3.814,8.533-8.533v-17.067h290.133V362.65z" fill="#9d9d24"/>
	</g>
</g>
<g>
	<g>
		<path d="M128,174.933c-4.71,0-8.533,3.814-8.533,8.533V217.6c0,4.719,3.823,8.533,8.533,8.533s8.533-3.814,8.533-8.533v-34.133    C136.533,178.748,132.71,174.933,128,174.933z" fill="#9d9d24"/>
	</g>
</g>
<g>
	<g>
		<path d="M145.067,234.667c-4.71,0-8.533,3.814-8.533,8.533v34.133c0,4.719,3.823,8.533,8.533,8.533    c4.71,0,8.533-3.814,8.533-8.533V243.2C153.6,238.481,149.777,234.667,145.067,234.667z" fill="#9d9d24"/>
	</g>
</g>
<g>
	<g>
		<path d="M375.467,354.133H34.133c-4.71,0-8.533,3.814-8.533,8.533s3.823,8.533,8.533,8.533h341.333    c4.71,0,8.533-3.814,8.533-8.533S380.177,354.133,375.467,354.133z" fill="#9d9d24"/>
	</g>
</g>
<g>
	<g>
		<path d="M486.4,354.116l-59.733,0.017c-4.71,0-8.533,3.823-8.533,8.533c0,4.719,3.823,8.533,8.533,8.533l59.733-0.017    c4.71,0,8.533-3.823,8.533-8.533C494.933,357.931,491.11,354.116,486.4,354.116z" fill="#9d9d24"/>
	</g>
</g>
<g>
	<g>
		<path d="M452.232,141.679c0.179-18.321-8.226-36.395-22.767-47.838c-14.473-11.375-33.946-15.36-51.823-10.854    c-0.017-0.043-0.034-0.085-0.051-0.128c-1.604-3.934-3.533-7.774-5.717-11.435c-4.352-7.262-9.737-13.824-16-19.499    c-15.693-14.225-36.011-22.059-57.207-22.059c-29.56,0-56.883,15.616-72.286,40.149c-11.093-14.379-28.279-23.083-47.181-23.083    c-30.225,0-55.287,22.579-59.204,51.755c-23.1,3.166-42.539,19.857-49.203,42.18C41.574,139.281,17.067,162.927,17.067,192    c0,3.422,0.35,6.869,1.033,10.231c0.811,3.977,4.301,6.835,8.363,6.835h58.871v68.267c0,4.719,3.823,8.533,8.533,8.533H179.2    c4.71,0,8.533-3.814,8.533-8.533v-68.267h297.805c4.062,0,7.552-2.859,8.363-6.835c0.683-3.362,1.033-6.81,1.033-10.231    C494.933,166.844,476.792,146.21,452.232,141.679z M179.2,192c-4.71,0-8.533,3.814-8.533,8.533V268.8H102.4v-68.267    c0-4.719-3.823-8.533-8.533-8.533H34.133c0-18.825,15.309-34.133,34.133-34.133c2.338,0,4.736,0.273,7.339,0.845    c2.313,0.486,4.719,0.017,6.665-1.323c1.946-1.34,3.243-3.439,3.584-5.777C88.909,130.85,107.025,115.2,128,115.2    c4.71,0,8.533-3.814,8.533-8.533C136.533,83.14,155.674,64,179.2,64c17.69,0,33.289,10.684,39.731,27.204    c1.28,3.277,4.437,5.436,7.953,5.436c0.017,0,0.026,0,0.043,0c3.533-0.009,6.69-2.202,7.936-5.513    c9.984-26.436,35.627-44.194,63.804-44.194c16.708,0,33.374,6.434,45.764,17.638c5.018,4.54,9.327,9.796,12.809,15.616    c1.749,2.91,3.285,5.99,4.574,9.131c0.179,0.444,0.307,0.939,0.461,1.442c0.461,1.553,1.041,3.473,2.176,5.376    c3.157,5.282,7.765,6.895,13.312,4.659l0.862-0.324c13.44-4.574,29.261-1.903,40.294,6.784    c11.904,9.37,18.21,25.694,15.684,40.627c-0.41,2.449,0.256,4.958,1.843,6.869c1.579,1.911,3.917,3.038,6.4,3.089    c19.644,0.384,35.021,15.386,35.021,34.159H179.2z" fill="#9d9d24"/>
	</g>
</g>
<g>
	<g>
		<path d="M128,98.133c-4.71,0-8.533,3.814-8.533,8.533c0,4.719,3.823,8.533,8.533,8.533c10.266,0,34.133,2.492,34.133,25.6    c0,4.719,3.823,8.533,8.533,8.533s8.533-3.814,8.533-8.533C179.2,114.884,159.104,98.133,128,98.133z" fill="#9d9d24"/>
	</g>
</g>
<g>
	<g>
		<path d="M443.733,396.8H409.6c-4.71,0-8.533,3.814-8.533,8.533v34.133c0,4.719,3.823,8.533,8.533,8.533h34.133    c4.71,0,8.533-3.814,8.533-8.533v-34.133C452.267,400.614,448.444,396.8,443.733,396.8z M435.2,430.933h-17.067v-17.067H435.2    V430.933z" fill="#9d9d24"/>
	</g>
</g>
<g>
	<g>
		<path d="M426.667,430.933c-4.71,0-8.533,3.814-8.533,8.533V473.6c0,4.719,3.823,8.533,8.533,8.533s8.533-3.814,8.533-8.533    v-34.133C435.2,434.748,431.377,430.933,426.667,430.933z" fill="#9d9d24"/>
	</g>
</g>
<g>
	<g>
		<path d="M443.733,465.067H409.6c-4.71,0-8.533,3.814-8.533,8.533c0,4.719,3.823,8.533,8.533,8.533h34.133    c4.71,0,8.533-3.814,8.533-8.533C452.267,468.881,448.444,465.067,443.733,465.067z" fill="#9d9d24"/>
	</g>
</g>
<g>
	<g>
		<path d="M102.4,396.8H68.267c-4.71,0-8.533,3.814-8.533,8.533v34.133c0,4.719,3.823,8.533,8.533,8.533H102.4    c4.71,0,8.533-3.814,8.533-8.533v-34.133C110.933,400.614,107.11,396.8,102.4,396.8z M93.867,430.933H76.8v-17.067h17.067V430.933    z" fill="#9d9d24"/>
	</g>
</g>
<g>
	<g>
		<path d="M85.333,430.933c-4.71,0-8.533,3.814-8.533,8.533V473.6c0,4.719,3.823,8.533,8.533,8.533c4.71,0,8.533-3.814,8.533-8.533    v-34.133C93.867,434.748,90.044,430.933,85.333,430.933z" fill="#9d9d24"/>
	</g>
</g>
<g>
	<g>
		<path d="M102.4,465.067H68.267c-4.71,0-8.533,3.814-8.533,8.533c0,4.719,3.823,8.533,8.533,8.533H102.4    c4.71,0,8.533-3.814,8.533-8.533C110.933,468.881,107.11,465.067,102.4,465.067z" fill="#9d9d24"/>
	</g>
</g>
<g>
	<g>
		<path d="M366.933,132.267c-18.825,0-34.133,15.309-34.133,34.133c0,4.719,3.823,8.533,8.533,8.533s8.533-3.814,8.533-8.533    c0-9.412,7.654-17.067,17.067-17.067S384,156.988,384,166.4c0,4.719,3.823,8.533,8.533,8.533c4.71,0,8.533-3.814,8.533-8.533    C401.067,147.575,385.758,132.267,366.933,132.267z" fill="#9d9d24"/>
	</g>
</g>
<g>
	<g>
		<path d="M273.067,89.6c-18.825,0-34.133,15.309-34.133,34.133c0,4.719,3.823,8.533,8.533,8.533s8.533-3.814,8.533-8.533    c0-9.412,7.654-17.067,17.067-17.067c9.412,0,17.067,7.654,17.067,17.067c0,4.719,3.823,8.533,8.533,8.533    s8.533-3.814,8.533-8.533C307.2,104.909,291.891,89.6,273.067,89.6z" fill="#9d9d24"/>
	</g>
</g>
<g>
</g>
<g>
</g>
<g>
</g>
<g>
</g>
<g>
</g>
<g>
</g>
<g>
</g>
<g>
</g>
<g>
</g>
<g>
</g>
<g>
</g>
<g>
</g>
<g>
</g>
<g>
</g>
<g>
</g>
</svg>
