<?xml version="1.0" encoding="utf-8"?>
<!-- Generator: Adobe Illustrator 19.1.0, SVG Export Plug-In . SVG Version: 6.00 Build 0)  -->
<svg version="1.1" id="Layer_1" xmlns="http://www.w3.org/2000/svg" xmlns:xlink="http://www.w3.org/1999/xlink" x="0px" y="0px"
	 width="100px" height="125px" viewBox="-545 358.9 100 125" style="enable-background:new -545 358.9 100 125;"
	 xml:space="preserve">
<style type="text/css">
	.st0{fill:#9D9D24;}
</style>
<g>
	<path class="st0" d="M-465.8,405.6h-7.1v-15.4v-1.3h-1.2h-7.1v-7.1v-1.2h-1.2h-8.3h-1.3v1.2v15.4h-7.1h-1.3v1.2v15.4h-8v-23.8v-0.7
		l-0.6-0.4l-17.4-11.4l-1.9-1.3v2.3v86.4v1.2h1.3h61.3h1.2v-1.3v-58.3v-1.2H-465.8z M-500.4,416.4v47.5h-8v-47.5H-500.4z
		 M-525.8,459.7h9.6v-2.5h-9.6v-6h9.6v-2.5h-9.6v-7.4h4v-2.5h-4v-6.4h9.6v-2.5h-9.6v-22.2h5.4v-2.5h-5.4v-5.5h9.6v-2.5h-9.6V381
		l14.9,9.8v24.3v1.3v47.5h-14.9V459.7z M-467.1,463.9h-3.2v-36.7h-2.5v36.7h-5.2v-50.8h-2.5v50.8h-17.4v-14.1h10.6v-2.5h-10.6v-14.9
		h10.6v-2.5h-10.6v-16h0v-5.3h10.6v-2.5h-10.6v-6.4h7.1h1.2v-1.3v-15.4h5.8v7.1v1.2h1.2h7.1v15.4v1.3h1.3h7.1L-467.1,463.9
		L-467.1,463.9z"/>
	<rect x="-472.8" y="413.7" class="st0" width="2.5" height="8.3"/>
	<rect x="-480.5" y="401.3" class="st0" width="2.5" height="8.1"/>
	<rect x="-480.5" y="394.5" class="st0" width="2.5" height="2.7"/>
	<rect x="-518.5" y="405.2" class="st0" width="2.8" height="2.5"/>
	<rect x="-520.3" y="438.8" class="st0" width="4.1" height="2.5"/>
</g>
</svg>
