<?xml version="1.0" encoding="iso-8859-1"?>
<!-- Generator: Adobe Illustrator 19.0.0, SVG Export Plug-In . SVG Version: 6.00 Build 0)  -->
<svg xmlns="http://www.w3.org/2000/svg" xmlns:xlink="http://www.w3.org/1999/xlink" version="1.1" id="Capa_1" x="0px" y="0px" viewBox="0 0 402.4 402.4" style="enable-background:new 0 0 402.4 402.4;" xml:space="preserve" width="512px" height="512px">
<g>
	<g>
		<path d="M357.223,4.8c-3.2-1.6-7.2-0.8-9.6,1.6l-31.2,31.2l-16.8-32c-1.6-2.4-4-4-6.4-4c-2.4,0-5.6,0.8-7.2,3.2l-26.4,34.4    l-23.2-34.4c-1.6-2.4-4-3.2-6.4-3.2c-2.4,0-4.8,1.6-6.4,4l-22.4,32L178.824,4c-1.6-2.4-4-4-6.4-4s-4.8,1.6-6.4,3.2l-23.2,34.4    l-26.4-34.4c-1.6-2.4-4-3.2-7.2-3.2c-2.4,0-4.8,1.6-6.4,4l-16.8,32l-31.2-31.2c-2.4-1.6-6.4-2.4-9.6-0.8c-3.2,1.6-4.8,4.8-4,8    l20,137.6c-6.4,2.4-10.4,8-10.4,15.2v80c0,8.8,7.2,16,15.2,16h96l-11.2,87.2v0.8c0,39.2,28,53.6,52.8,53.6    c24,0,48.8-14.4,48.8-53.6V348l-11.2-86.4h100c8.8,0,15.2-7.2,15.2-16v-80c0-8.8-6.4-15.2-14.4-16l19.2-136.8    C362.023,9.6,359.623,6.4,357.223,4.8z M340.423,245.6h-108.8c-2.4,0-4.8,0.8-6.4,2.4c-1.6,1.6-2.4,4-1.6,6.4l12,95.2    c0,33.6-23.2,36.8-32.8,36.8c-11.2,0-36-4-36.8-36.8l12-95.2c0-2.4-0.8-4.8-1.6-6.4c-1.6-1.6-4-2.4-6.4-2.4h-104v-42.4h274.4    V245.6z M340.423,187.2h-274.4v-21.6h4h262.4h8V187.2z M324.423,149.6h-247.2l-16.8-115.2l21.6,21.6c1.6,1.6,4,2.4,7.2,2.4    c2.4,0,4.8-1.6,5.6-4l16-31.2l25.6,33.6c1.6,2.4,4,3.2,6.4,3.2c2.4,0,4.8-1.6,6.4-3.2l22.4-33.6l22.4,33.6    c3.2,4.8,10.4,4.8,13.6,0l22.4-33.6l22.4,33.6c1.6,2.4,4,3.2,6.4,3.2c2.4,0,4.8-0.8,6.4-3.2l25.6-33.6l16,31.2    c0.8,2.4,3.2,4,5.6,4c2.4,0,4.8-0.8,7.2-2.4l21.6-21.6L324.423,149.6z" fill="#9d9d24"/>
	</g>
</g>
<g>
	<g>
		<path d="M203.623,324c-12.8,0-22.4,10.4-22.4,24c0,13.6,10.4,24,22.4,24s22.4-10.4,22.4-24C226.023,334.4,215.623,324,203.623,324    z M203.623,356c-4,0-6.4-3.2-6.4-8s3.2-8,6.4-8c3.2,0,6.4,3.2,6.4,8S206.824,356,203.623,356z" fill="#9d9d24"/>
	</g>
</g>
<g>
</g>
<g>
</g>
<g>
</g>
<g>
</g>
<g>
</g>
<g>
</g>
<g>
</g>
<g>
</g>
<g>
</g>
<g>
</g>
<g>
</g>
<g>
</g>
<g>
</g>
<g>
</g>
<g>
</g>
</svg>
