<svg height="480pt" viewBox="-104 0 480 480.14256" width="480pt" xmlns="http://www.w3.org/2000/svg"><path d="m248.070312 0h-224c-13.253906 0-23.9999995 10.746094-23.9999995 24v392c0 13.253906 10.7460935 24 23.9999995 24h14.242188c-8.71875 9.589844-8.246094 24.363281 1.058594 33.378906 9.308594 9.019532 24.09375 9.019532 33.398437 0 9.308594-9.015625 9.777344-23.789062 1.0625-33.378906h124.480469c-8.71875 9.589844-8.246094 24.363281 1.058594 33.378906 9.308594 9.019532 24.09375 9.019532 33.398437 0 9.308594-9.015625 9.777344-23.789062 1.0625-33.378906h14.238281c13.253907 0 24-10.746094 24-24v-392c0-13.253906-10.746093-24-24-24zm-192 464c-4.417968 0-8-3.582031-8-8s3.582032-8 8-8c4.417969 0 8 3.582031 8 8s-3.582031 8-8 8zm160 0c-4.417968 0-8-3.582031-8-8s3.582032-8 8-8c4.417969 0 8 3.582031 8 8s-3.582031 8-8 8zm40-440v304h-112v-312h104c4.417969 0 8 3.582031 8 8zm-240 320h112v32h-112zm0-320c0-4.417969 3.582032-8 8-8h104v312h-112zm0 392v-24h112v32h-104c-4.417968 0-8-3.582031-8-8zm240 0c0 4.417969-3.582031 8-8 8h-104v-80h112zm0 0"/><path d="m104.070312 144c-4.417968 0-8 3.582031-8 8v32c0 4.417969 3.582032 8 8 8 4.417969 0 8-3.582031 8-8v-32c0-4.417969-3.582031-8-8-8zm0 0"/><path d="m168.070312 192c4.417969 0 8-3.582031 8-8v-32c0-4.417969-3.582031-8-8-8-4.417968 0-8 3.582031-8 8v32c0 4.417969 3.582032 8 8 8zm0 0"/><path d="m80.070312 352h-16c-4.417968 0-8 3.582031-8 8s3.582032 8 8 8h16c4.417969 0 8-3.582031 8-8s-3.582031-8-8-8zm0 0"/><path d="m192.070312 368h16c4.417969 0 8-3.582031 8-8s-3.582031-8-8-8h-16c-4.417968 0-8 3.582031-8 8s3.582032 8 8 8zm0 0"/><path d="m80.070312 400h-16c-4.417968 0-8 3.582031-8 8s3.582032 8 8 8h16c4.417969 0 8-3.582031 8-8s-3.582031-8-8-8zm0 0"/><path d="m48.070312 24h-16c-4.417968 0-8 3.582031-8 8v16c0 4.417969 3.582032 8 8 8 4.417969 0 8-3.582031 8-8v-8h8c4.417969 0 8-3.582031 8-8s-3.582031-8-8-8zm0 0"/><path d="m32.070312 64c-4.417968 0-8 3.582031-8 8v16c0 4.417969 3.582032 8 8 8 4.417969 0 8-3.582031 8-8v-16c0-4.417969-3.582031-8-8-8zm0 0"/></svg>