<?xml version="1.0" encoding="iso-8859-1"?>
<!-- Generator: Adobe Illustrator 19.0.0, SVG Export Plug-In . SVG Version: 6.00 Build 0)  -->
<svg version="1.1" id="Capa_1" xmlns="http://www.w3.org/2000/svg" xmlns:xlink="http://www.w3.org/1999/xlink" x="0px" y="0px"
	 viewBox="0 0 496 496" style="enable-background:new 0 0 496 496;" xml:space="preserve">
<g>
	<g>
		<g>
			<path d="M472,256H352v-8c0-13.232-10.768-24-24-24h-8v-48h48c13.232,0,24-10.768,24-24V24c0-13.232-10.768-24-24-24H128
				c-13.232,0-24,10.768-24,24v128c0,13.232,10.768,24,24,24h80c0,8.816,7.176,16,16,16h16c8.816,0,16-7.184,16-16v-8
				c0-4.416,3.584-8,8-8c4.416,0,8,3.584,8,8v56H168c-13.232,0-24,10.768-24,24v8H24c-13.232,0-24,10.768-24,24v216h496V280
				C496,266.768,485.232,256,472,256z M208.64,160H128c-4.416,0-8-3.584-8-8V24c0-4.416,3.584-8,8-8h240c4.416,0,8,3.584,8,8v128
				c0,4.416-3.584,8-8,8h-48.64c-0.816-5.648-2.464-11.024-4.84-16H360V32H136v112h77.48
				C211.104,148.976,209.456,154.352,208.64,160z M152,128V48h192v80h-40.888c-10.104-9.88-23.904-16-39.112-16
				s-29.008,6.12-39.112,16H152z M264,144c-13.232,0-24,10.768-24,24v8h-16v-8c0-22.056,17.944-40,40-40c22.056,0,40,17.944,40,40
				v56h-16v-56C288,154.768,277.232,144,264,144z M224,480H16V304h208V480z M256,480h-16V304h16V480z M480,288h-16v16h16v176H272
				V304h176v-16H16v-8c0-4.416,3.584-8,8-8h280v-16H160v-8c0-4.416,3.584-8,8-8h160c4.416,0,8,3.584,8,8v8h-16v16h152
				c4.416,0,8,3.584,8,8V288z"/>
			<path d="M192,432c8.816,0,16-7.184,16-16v-48c0-8.824-7.184-16-16-16v-32H32v144h160V432z M176,448H48V336h128v16
				c-8.824,0-16,7.176-16,16v48c0,8.816,7.176,16,16,16V448z M176,368h16v48h-16V368z"/>
			<rect x="64" y="352" width="80" height="16"/>
			<rect x="64" y="384" width="80" height="16"/>
			<rect x="64" y="416" width="80" height="16"/>
			<path d="M304,352c-8.824,0-16,7.176-16,16v48c0,8.816,7.176,16,16,16v32h160V320H304V352z M320,336h128v112H320v-16
				c8.816,0,16-7.184,16-16v-48c0-8.824-7.184-16-16-16V336z M320,416h-16l-0.016-48H304h16V416z"/>
			<rect x="352" y="352" width="80" height="16"/>
			<rect x="352" y="384" width="80" height="16"/>
			<rect x="352" y="416" width="80" height="16"/>
		</g>
	</g>
</g>
<g>
</g>
<g>
</g>
<g>
</g>
<g>
</g>
<g>
</g>
<g>
</g>
<g>
</g>
<g>
</g>
<g>
</g>
<g>
</g>
<g>
</g>
<g>
</g>
<g>
</g>
<g>
</g>
<g>
</g>
</svg>
